<?xml version="1.0" encoding="UTF-8" standalone="no"?>
<!-- Created with Inkscape (http://www.inkscape.org/) -->

<svg
   width="126.95238mm"
   height="77.999184mm"
   viewBox="0 0 126.95238 77.999184"
   version="1.1"
   id="svg5"
   inkscape:version="1.1.2 (0a00cf5339, 2022-02-04)"
   sodipodi:docname="entangled.svg"
   xmlns:inkscape="http://www.inkscape.org/namespaces/inkscape"
   xmlns:sodipodi="http://sodipodi.sourceforge.net/DTD/sodipodi-0.dtd"
   xmlns="http://www.w3.org/2000/svg"
   xmlns:svg="http://www.w3.org/2000/svg">
  <sodipodi:namedview
     id="namedview7"
     pagecolor="#ffffff"
     bordercolor="#666666"
     borderopacity="1.0"
     inkscape:pageshadow="2"
     inkscape:pageopacity="0.0"
     inkscape:pagecheckerboard="0"
     inkscape:document-units="mm"
     showgrid="false"
     fit-margin-top="0"
     fit-margin-left="0"
     fit-margin-right="0"
     fit-margin-bottom="0"
     inkscape:zoom="1.4609989"
     inkscape:cx="231.34857"
     inkscape:cy="165.98233"
     inkscape:window-width="1850"
     inkscape:window-height="1009"
     inkscape:window-x="70"
     inkscape:window-y="34"
     inkscape:window-maximized="1"
     inkscape:current-layer="layer1" />
  <defs
     id="defs2" />
  <g
     inkscape:label="Calque 1"
     inkscape:groupmode="layer"
     id="layer1"
     transform="translate(-30.083621,-31.590163)">
    <path
       style="fill:none;stroke:#000000;stroke-width:0.264583px;stroke-linecap:butt;stroke-linejoin:miter;stroke-opacity:1"
       d="m 69.701265,49.505745 3.3105,-1.552232 3.340385,-1.350339 3.374496,-1.165716 3.412833,-0.998363 3.455396,-0.848282 3.502185,-0.71547 3.553199,-0.599929 3.60844,-0.501658 1.917109,-0.256092 1.895072,-0.266645 1.88126,-0.254557 1.87571,-0.219826 1.87839,-0.162454 1.88931,-0.08244 1.90846,0.02022 1.93587,0.145511 0.70754,0.06375 0.77527,0.06232 0.79666,0.08569 0.77169,0.133854 0.70036,0.206814 0.58267,0.30457 0.41864,0.42712 0.20825,0.574467 -0.0656,0.749428 -0.37043,0.633454 -0.60979,0.535152 -0.78374,0.454519 -0.8923,0.391557 -0.93544,0.346266 -0.91318,0.318643 -0.8255,0.308693 -3.2114,1.235568 -2.98232,1.004881 -2.83991,0.822249 -2.78416,0.687675 -2.815076,0.601155 -2.932654,0.562693 -3.136898,0.572286 -3.427809,0.629935 -1.254816,0.225577 -1.257536,0.21171 -1.258932,0.204481 -1.259003,0.203889 -1.257748,0.209935 -1.25517,0.222618 -1.251265,0.241939 -1.246036,0.267897 -1.087366,0.269811 -1.160805,0.329132 -1.160174,0.368986 -1.085474,0.389373 -0.936705,0.390293 -0.713867,0.371747 -0.416961,0.333734 -0.04598,0.276253 2.061662,2.714315 2.321006,2.535464 2.528566,2.377449 2.68434,2.240273 2.788329,2.123936 2.840533,2.028438 2.840952,1.953777 2.789586,1.899955 2.757837,1.884237 1.80585,1.219092 1.151926,0.747901 0.796065,0.470663 0.738266,0.38738 0.978531,0.49805 1.51686,0.802674 2.35325,1.301253 0.42101,0.215851 0.48218,0.227094 0.49943,0.241926 0.47274,0.260346 0.40213,0.282354 0.28759,0.307948 0.12912,0.337131 -0.0733,0.369902 -0.59085,0.26829 -1.13741,-0.144058 -1.46787,-0.470629 -1.58223,-0.711422 -1.48049,-0.866437 -1.162642,-0.935672 -0.628692,-0.919131 0.121361,-0.816811 1.400753,-1.44188 1.74625,-1.241983 1.99459,-1.067542 2.14576,-0.918557 2.19976,-0.795027 2.15658,-0.696955 2.01623,-0.624336 1.77873,-0.577175 2.21795,-0.81223 2.3665,-0.923013 2.47455,-0.970217 2.54207,-0.953843 2.56907,-0.87389 2.55556,-0.73036 2.50153,-0.52325 2.40698,-0.252563 0.27372,0.259021 0.3316,0.723996 0.37755,1.079807 0.41158,1.326453 0.43367,1.463933 0.44383,1.492249 0.44207,1.4114 0.42837,1.221385 0.90644,1.994972 1.17455,2.289346 1.19724,2.448455 0.97448,2.472296 0.50628,2.360871 -0.20736,2.114178 -1.16642,1.732218 -2.37094,1.214993 -4.7802,1.086505 -5.26993,0.626031 -5.59778,0.225635 -5.76376,-0.114681 -5.76787,-0.394916 -5.61009,-0.615071 -5.29045,-0.775149 -4.80893,-0.875144 -0.682754,-0.155176 -1.216235,-0.307384 -1.568831,-0.436346 -1.740543,-0.542061 -1.731368,-0.624531 -1.54131,-0.683754 -1.170367,-0.719731 -0.618539,-0.732462 -0.147556,-0.185579 -0.215454,-0.02091 -0.268297,0.103945 -0.306079,0.188995 -0.328806,0.234239 -0.336475,0.239674 -0.329085,0.205304 -0.306639,0.131124 -0.950126,0.242525 -0.9588,0.205594 -0.965845,0.174375 -0.971261,0.148869 -0.975047,0.129074 -0.977205,0.114991 -0.977733,0.106621 -0.976632,0.103964 -3.06078,0.20751 -2.999063,-0.0095 -2.956049,-0.178592 -2.931739,-0.299816 -2.92613,-0.373157 -2.939225,-0.398614 -2.971021,-0.376186 -3.021522,-0.305874 -0.726677,-0.02088 -1.45132,-0.02174 -1.934194,-0.03231 -2.175296,-0.05259 -2.174627,-0.08257 -1.932188,-0.122258 -1.447977,-0.171652 -0.721995,-0.230752 -0.144441,-0.776576 0.229934,-1.484612 0.502728,-1.962844 0.673943,-2.211272 0.743579,-2.229897 0.711637,-2.018718 0.578114,-1.577735 0.343013,-0.906949 1.269971,-3.167444 1.547967,-3.436936 1.858002,-3.455822 2.200078,-3.224104 2.574193,-2.741781 2.98035,-2.00885 3.418546,-1.025316 3.888782,0.208825 1.65247,0.424419 1.619691,0.525769 1.591712,0.608173 1.568537,0.671632 1.550164,0.716146 1.536592,0.741716 1.527823,0.748339 1.523855,0.736019 1.412576,0.642845 1.505686,0.663534 1.548028,0.708904 1.539602,0.778953 1.480408,0.873684 1.370446,0.993093 1.209717,1.137183 0.998218,1.305954 -0.02746,1.672088 -1.685518,1.889253 -2.877336,2.001885 -3.602908,2.009983 -3.862237,1.913549 -3.655319,1.712582 -2.982158,1.407083 -1.842751,0.997049 -0.190606,0.05866 -0.08947,-0.132029 -0.01167,-0.278707 0.04279,-0.381384 0.07391,-0.440055 0.08169,-0.454724 0.06613,-0.425388 0.02723,-0.352048 -0.0092,-1.205056 -0.04918,-1.187866 -0.12137,-1.158472 -0.225793,-1.116877 -0.362449,-1.063081 -0.53134,-0.997082 -0.732467,-0.918881 -0.965827,-0.828479 -0.791687,-0.600923 -0.495299,-0.453585 -0.282878,-0.352003 -0.154425,-0.296175 -0.109938,-0.286103 -0.149419,-0.321788 -0.272866,-0.403227 -0.480282,-0.530422 -1.690244,-1.608173 -1.70673,-1.542846 -1.675257,-1.530949 -1.595827,-1.572482 -1.468437,-1.667447 -1.29309,-1.81584 -1.069784,-2.017666 -0.798521,-2.27292 -0.0896,-0.289804 -0.117289,-0.333786 -0.129169,-0.364846 -0.12524,-0.382987 -0.105503,-0.388208 -0.06996,-0.38051 -0.0186,-0.359893 0.04856,-0.326354 0.412001,-0.758616 0.691854,-0.578786 0.892945,-0.428976 1.015272,-0.309187 1.058836,-0.219419 1.023638,-0.159672 0.909676,-0.129944 0.716953,-0.130239 2.664414,-0.606255 2.2672,-0.41656 1.985733,-0.179786 1.820014,0.10407 1.77004,0.435005 1.835812,0.81302 2.017333,1.238116 2.314598,1.710293 0.27135,0.223566 0.350759,0.311312 0.397968,0.379735 0.412976,0.428836 0.395784,0.458617 0.346392,0.469074 0.264801,0.460211 0.151008,0.432025 -0.233873,2.018444 -1.16627,2.507346 -1.756226,2.804078 -2.003741,2.908639 -1.908815,2.821028 -1.471449,2.541248 -0.691642,2.069295 0.430607,1.405173 0.679361,0.207175 1.30686,0.09634 1.727511,0.0098 1.941312,-0.05249 1.948265,-0.09048 1.748367,-0.104191 1.34162,-0.09362 0.728025,-0.05877 3.554173,-0.340801 3.554985,-0.349118 3.555658,-0.353015 3.556198,-0.352489 3.556599,-0.347542 3.556865,-0.338173 3.556994,-0.324381 3.55699,-0.306169 0.32117,-0.02042 0.32161,-0.0096 0.32196,-0.0012 0.32221,0.0046 0.32234,0.0079 0.32238,0.0088 0.32231,0.0071 0.32214,0.0029 0.13315,0.03039 -0.0579,0.0854 -0.19866,0.131781 -0.28925,0.16952 -0.32961,0.19862 -0.31978,0.21908 -0.25973,0.230903 -0.14947,0.234087 -0.0127,0.270591 0.13889,0.218709 0.25707,0.17351 0.34188,0.134996 0.3933,0.103164 0.41135,0.07802 0.39601,0.05955 0.3473,0.04777 1.278,0.123378 1.44646,0.0289 1.54632,-0.08052 1.57755,-0.204899 1.54017,-0.344221 1.43417,-0.498492 1.25956,-0.667713 1.01632,-0.851882 0.25951,-0.391458 0.18696,-0.498227 0.12825,-0.571696 0.0834,-0.611868 0.0524,-0.618743 0.0352,-0.592319 0.0319,-0.532599 0.0424,-0.43958 0.0629,-0.352739 0.094,-0.467355 0.0992,-0.543921 0.0785,-0.582432 0.0319,-0.582891 -0.0406,-0.545298 -0.139,-0.469652 -0.26329,-0.355953 -2.73823,-1.56688 -4.07195,-1.340902 -4.9393,-1.003275 -5.3403,-0.554002 -5.274969,0.0069 -4.743275,0.679489 -3.745234,1.463707 -2.280844,2.359572 0.0032,0.345724 0.32806,0.313719 0.596955,0.285683 0.809931,0.261611 0.966988,0.241506 1.068125,0.225367 1.113344,0.213194 1.102643,0.204987 3.797747,0.677545 5.065554,0.809884 5.89693,0.80558 6.29188,0.664635 6.25041,0.387047 5.77251,-0.02718 4.85818,-0.578055 3.50743,-1.26557 0.0783,-0.09231 -0.0411,-0.09425 -0.13368,-0.09353 -0.19963,-0.09014 -0.23889,-0.08408 -0.25147,-0.07535 -0.23736,-0.06396 -0.19656,-0.04989 -0.71519,-0.181829 -0.71535,-0.183754 -0.71613,-0.181507 -0.71752,-0.175087 -0.71952,-0.164493 -0.72215,-0.149728 -0.72539,-0.130788 -0.72925,-0.107677 -1.88145,-0.244195 -2.79438,-0.321862 -3.38577,-0.295499 -3.65561,-0.165104 -3.60388,0.06932 -3.23062,0.407776 -2.53579,0.850261 -1.51941,1.396778 -0.17413,2.07231 0.67015,3.174465 1.11903,3.831631 1.17252,4.043807 0.8306,3.810995 0.0933,3.133193 -1.03946,2.010401 -2.56758,0.442621 -1.30683,-0.829915 -0.88072,-1.848653 -0.522,-2.559838 -0.23067,-2.963471 -0.007,-3.059549 0.14986,-2.848075 0.23907,-2.329048 0.26087,-1.502466 0.34227,-1.139483 0.42541,-1.102699 0.47405,-1.025847 0.48821,-0.908925 0.46787,-0.751934 0.41305,-0.554876 0.32374,-0.317747 0.19993,-0.04055 -0.49053,0.838801 -1.78288,1.787876 -2.67144,2.410797 -3.156181,2.707567 -3.237123,2.67818 -2.914256,2.322642 -2.187584,1.64095 -1.057105,0.633104 -0.0569,-0.01063 0.01212,-0.03877 0.06503,-0.0606 0.101836,-0.07613 0.122538,-0.08535 0.127135,-0.08827 0.115629,-0.08488 0.08802,-0.07519 0.321841,-0.339217 0.30881,-0.35565 0.303106,-0.362712 0.304732,-0.360405 0.313688,-0.348728 0.329973,-0.327682 0.353587,-0.297265 0.384529,-0.257479 0.875078,-0.494853 0.889892,-0.472082 0.90402,-0.446704 0.917464,-0.41872 0.93022,-0.388129 0.942292,-0.35493 0.953676,-0.319124 0.964375,-0.280712 4.520898,-1.142608 3.8436,-0.816861 3.39503,-0.555435 3.17517,-0.358332 3.18403,-0.225549 3.4216,-0.157087 3.8879,-0.152948 4.58291,-0.21313 1.85554,-0.03935 1.88389,0.03823 1.8945,0.05915 1.88739,0.0234 1.86255,-0.06901 1.81998,-0.218092 1.75967,-0.423835 1.68165,-0.686243 0.0305,-0.0308 -0.0152,-0.03319 -0.0507,-0.03378 -0.076,-0.03258 -0.091,-0.02958 -0.0958,-0.02479 -0.0904,-0.01821 -0.0748,-0.0098 -0.81198,-0.06393 -0.8124,-0.06182 -0.81277,-0.05769 -0.81313,-0.05155 -0.81344,-0.04337 -0.81373,-0.03318 -0.81398,-0.02097 -0.81421,-0.0067 -2.50361,0.09075 -3.54479,0.217444 -4.22597,0.269219 -4.54714,0.246079 -4.50829,0.148024 -4.10943,-0.02495 -3.35057,-0.272831 -2.23168,-0.595632 -0.2709,-0.277492 -0.0292,-0.418203 0.17695,-0.547484 0.34757,-0.665335 0.48267,-0.771756 0.58223,-0.866748 0.64625,-0.95031 0.67475,-1.022441 0.49369,-0.756745 0.4701,-0.710527 0.44458,-0.68363 0.41711,-0.676052 0.3877,-0.687795 0.35635,-0.71886 0.32305,-0.769245 0.28781,-0.83895 0.0622,-0.391154 -0.021,-0.414162 -0.0702,-0.425935 -0.0854,-0.426472 -0.0667,-0.415773 -0.014,-0.393839 0.0727,-0.360671 0.19341,-0.316265 0.31415,-0.01194 0.65475,0.167836 0.88966,0.296169 1.01889,0.373056 1.04245,0.398501 0.96032,0.372501 0.77252,0.295057 0.47903,0.166169 0.11353,0.04109 -0.0655,0.0051 -0.20321,-0.02298 -0.29954,-0.04311 -0.35446,-0.0553 -0.36803,-0.05954 -0.3402,-0.05585 -0.27102,-0.04421 -0.87568,-0.140842 -0.87596,-0.140086 -0.87641,-0.137483 -0.87706,-0.133032 -0.87788,-0.126734 -0.8789,-0.118588 -0.88009,-0.108596 -0.88147,-0.09676 -3.63294,-0.347791 -3.74674,-0.314253 -3.821462,-0.280137 -3.857134,-0.245447 -3.853736,-0.210178 -3.811275,-0.174336 -3.72975,-0.137915 -3.60916,-0.100919 -2.206352,-0.06563 -2.667251,-0.08038 -2.988046,-0.05496 -3.168738,0.01062 -3.209328,0.116367 -3.109816,0.262277 -2.870201,0.448352 -2.490482,0.674591"
       id="path120"
       sodipodi:nodetypes="ccccccccccccccccccccccccccccccccccccccccccccccccccccccccccccccccccccccccccccccccccccccccccccccccccccccccccccccccccccccccccccccccccccccccccccccccccccccccccccccccccccccccccccccccccccccccccccccccccccccccccccccccccccccccccccccccccccccccccccccccccccccccccccccccccccccccccccccccccccccccccccccccccccccccccccccccccccccccccccccccccccccccccccccccccccccccccccccccccccccccccccccccccccccccccccccccccccccccccccccccccccccccccccccccccccccccccccccccccccccccccccccccccccccccccccccccccccccccccccccccccccccccccccccccccccccccccccccccccccccccccccccccccccccccccccccccccccccccc" />
  </g>
</svg>
