<?xml version="1.0" encoding="UTF-8" standalone="no"?>
<!-- Created with Inkscape (http://www.inkscape.org/) -->

<svg
   width="87.486565mm"
   height="40.583725mm"
   viewBox="0 0 87.486565 40.583725"
   version="1.1"
   id="svg5"
   sodipodi:docname="mva_2d.svg"
   inkscape:version="1.1.2 (0a00cf5339, 2022-02-04)"
   xmlns:inkscape="http://www.inkscape.org/namespaces/inkscape"
   xmlns:sodipodi="http://sodipodi.sourceforge.net/DTD/sodipodi-0.dtd"
   xmlns="http://www.w3.org/2000/svg"
   xmlns:svg="http://www.w3.org/2000/svg">
  <sodipodi:namedview
     id="namedview7"
     pagecolor="#ffffff"
     bordercolor="#666666"
     borderopacity="1.0"
     inkscape:pageshadow="2"
     inkscape:pageopacity="0.0"
     inkscape:pagecheckerboard="0"
     inkscape:document-units="mm"
     showgrid="false"
     inkscape:zoom="1.0330822"
     inkscape:cx="-68.242391"
     inkscape:cy="71.146322"
     inkscape:window-width="1850"
     inkscape:window-height="1009"
     inkscape:window-x="70"
     inkscape:window-y="34"
     inkscape:window-maximized="1"
     inkscape:current-layer="layer1"
     fit-margin-top="0"
     fit-margin-left="0"
     fit-margin-right="0"
     fit-margin-bottom="0" />
  <defs
     id="defs2" />
  <g
     inkscape:label="Calque 1"
     inkscape:groupmode="layer"
     id="layer1"
     transform="translate(-50.771214,-40.973738)">
    <path
       style="fill:none;stroke:#000000;stroke-width:0.264583px;stroke-linecap:butt;stroke-linejoin:miter;stroke-opacity:1"
       d="m 51.277773,78.341089 c 0.116369,-1.932993 -0.142189,-3.893613 0,-5.824704 0.437891,-5.947023 1.776482,-12.879522 0.87588,-18.880952 -0.289711,-1.930572 -2.02433,-7.413757 -0.842397,-9.078828 0.219247,-0.308866 0.455385,0.605695 0.696177,0.898076 0.814843,0.989425 2.267043,1.764799 3.098181,2.77065 3.623215,4.384844 5.744784,10.126231 8.878898,14.888805 0.654934,0.995233 6.518003,-6.747454 7.025066,-8.054276 0.497237,-1.281491 0.61717,-2.741451 0.91055,-4.072806 0.558514,-2.534549 1.200174,-5.080886 1.285179,-5.005443 0.923833,0.819912 -0.127238,6.612594 -0.261175,7.881811 -0.230166,2.181127 0.624043,22.165873 1.297061,23.053645 0.614191,0.810176 9.734169,1.408592 11.822888,1.408592 1.611995,0 9.509818,0.806148 10.899365,-0.256109 0.582149,-0.445034 -3.432371,-5.0654 -3.878146,-5.814028 -3.473371,-5.833147 -4.749972,-14.651556 -8.239432,-19.869393 -0.252857,-0.3781 -2.091902,-4.993751 -2.048981,-5.012934 0.501385,-0.224062 5.462312,-1.745996 5.579443,-1.246489 0.576922,2.460316 2.343142,4.822704 2.951369,7.255603 1.609037,6.436148 3.112688,13.59871 6.81341,19.156132 0.101475,0.152387 0.606687,-1.605899 0.685673,-1.764824 1.091718,-2.196621 1.253238,-4.700003 1.664338,-7.083295 1.0125,-5.869681 -0.15079,-12.310279 2.47732,-17.381929 0.12928,-0.249468 2.08652,0.106206 2.40129,0 0.59383,-0.200361 1.81877,-0.625554 2.41392,-0.260831 0.78846,0.483187 -1.29383,5.640424 -1.4802,6.426697 -1.38547,5.845005 -0.11413,15.887081 -2.63283,20.898183 -0.31267,0.622088 -1.5186,3.640119 -1.4208,3.850256 0.10658,0.228995 6.43702,0 9.09449,0 0.38305,0 3.66091,0.310439 3.8446,0 3.70921,-6.268434 4.46924,-15.19016 7.29431,-22.140343 1.02693,-2.526443 1.72015,-5.755968 2.30968,-8.373883 0.52664,-2.338639 1.65313,-5.635844 1.6806,-5.603975 0.85589,0.992989 1.56465,3.014525 1.86853,4.316621 0.53247,2.281574 8.32003,27.660928 9.11528,28.500734 0.94413,0.997021 0.79747,3.252943 0.12027,3.850725 -1.99112,1.757624 -3.59545,-1.617904 -3.92695,-2.608033 -0.79912,-2.386872 -4.43094,-16.169645 -5.19452,-16.619116 -0.25428,-0.149675 -2.32963,-0.256109 -2.5768,-0.256109 -0.28917,0 -0.96878,-0.438174 -1.22006,-0.256111 -2.89664,2.098762 -2.18041,18.435161 -5.12265,21.449921 -0.96274,0.986467 -4.01985,0.725845 -5.4421,0.725845 -4.47413,0 -10.16541,-0.881621 -14.573512,0 -5.604034,1.120806 -23.507941,2.470589 -27.835431,-1.058178 -2.3953,-1.953199 1.107305,-15.898246 -0.672008,-18.663779 -0.330536,-0.513739 -6.696022,6.815714 -7.214211,7.333903 -1.127826,1.127824 -7.61901,-14.24015 -8.709075,-15.379409 -0.06433,-0.06723 0.365906,2.609805 0.455541,3.062746 0.489807,2.475018 0.516975,5.133879 0.516975,7.691228 0,2.58445 -0.119515,15.694625 -1.248416,16.806447 -0.337801,0.33269 -2.864305,-1.462871 -3.53659,-1.660843 z"
       id="path2468" />
  </g>
</svg>
