<?xml version="1.0" encoding="UTF-8" standalone="no"?>
<!-- Created with Inkscape (http://www.inkscape.org/) -->

<svg
   width="48.593231mm"
   height="36.895721mm"
   viewBox="0 0 48.593231 36.895721"
   version="1.1"
   id="svg5"
   inkscape:version="1.1.2 (0a00cf5339, 2022-02-04)"
   sodipodi:docname="shape1.svg"
   xmlns:inkscape="http://www.inkscape.org/namespaces/inkscape"
   xmlns:sodipodi="http://sodipodi.sourceforge.net/DTD/sodipodi-0.dtd"
   xmlns="http://www.w3.org/2000/svg"
   xmlns:svg="http://www.w3.org/2000/svg">
  <sodipodi:namedview
     id="namedview7"
     pagecolor="#ffffff"
     bordercolor="#666666"
     borderopacity="1.0"
     inkscape:pageshadow="2"
     inkscape:pageopacity="0.0"
     inkscape:pagecheckerboard="0"
     inkscape:document-units="mm"
     showgrid="false"
     fit-margin-top="0"
     fit-margin-left="0"
     fit-margin-right="0"
     fit-margin-bottom="0"
     inkscape:zoom="5.6568543"
     inkscape:cx="120.11976"
     inkscape:cy="48.525203"
     inkscape:window-width="1850"
     inkscape:window-height="1009"
     inkscape:window-x="70"
     inkscape:window-y="34"
     inkscape:window-maximized="1"
     inkscape:current-layer="layer1" />
  <defs
     id="defs2" />
  <g
     inkscape:label="Calque 1"
     inkscape:groupmode="layer"
     id="layer1"
     transform="translate(-89.206515,-31.5004)">
    <path
       style="fill:none;stroke:#000000;stroke-width:0.264583px;stroke-linecap:butt;stroke-linejoin:miter;stroke-opacity:1"
       d="m 104.14486,33.926166 -0.48735,-0.08105 -0.54801,-0.05738 -0.59817,-0.03278 -0.63781,-0.0072 -0.66696,0.01923 -0.68559,0.04664 -0.693719,0.07498 -0.691344,0.104263 -0.678461,0.134479 -0.655072,0.165631 -0.621176,0.197718 -0.576775,0.230741 -0.521866,0.264701 -0.456452,0.299596 -0.380532,0.335426 -0.294104,0.372193 -0.103253,0.172815 -0.09461,0.177696 -0.08642,0.182092 -0.07868,0.186006 -0.07139,0.189437 -0.06456,0.192385 -0.05817,0.19485 -0.05224,0.196832 -0.04677,0.198332 -0.04175,0.199347 -0.03718,0.199882 -0.03306,0.199931 -0.02939,0.199499 -0.02618,0.198584 -0.02342,0.197185 -0.02112,0.195304 -0.01639,0.154596 -0.01687,0.156075 -0.01669,0.157326 -0.01584,0.158347 -0.01432,0.159137 -0.01213,0.159697 -0.0093,0.160027 -0.0058,0.160128 -0.0016,0.159999 0.0033,0.159638 0.0088,0.15905 0.015,0.158229 0.02185,0.15718 0.02938,0.155901 0.03757,0.154391 0.04643,0.152652 0.132509,0.376537 0.142422,0.372917 0.151849,0.369335 0.160788,0.365788 0.169241,0.362278 0.177208,0.358803 0.184689,0.355366 0.191682,0.351963 0.19819,0.348598 0.204211,0.345269 0.209745,0.341975 0.214793,0.338719 0.219355,0.335498 0.223429,0.332314 0.227019,0.329165 0.23012,0.326054 0.134154,0.177286 0.142448,0.169655 0.149249,0.163329 0.154559,0.158309 0.158378,0.154593 0.160705,0.152183 0.16154,0.151077 0.160884,0.151278 0.158736,0.152784 0.155097,0.155594 0.149965,0.15971 0.143344,0.165131 0.135229,0.171857 0.125624,0.179889 0.114526,0.189226 0.101938,0.199867 0.178489,0.482088 0.09893,0.484459 0.032,0.486553 -0.02229,0.48837 -0.06396,0.48991 -0.09298,0.491174 -0.109381,0.49216 -0.113145,0.492871 -0.104275,0.493303 -0.08277,0.49346 -0.04864,0.493339 -0.0019,0.492941 0.05753,0.492268 0.129565,0.491316 0.214232,0.490088 0.311531,0.488584 0.114268,0.152202 0.110544,0.144802 0.10804,0.137631 0.10674,0.130687 0.10666,0.123972 0.10777,0.117484 0.11011,0.111225 0.11366,0.105194 0.11841,0.09939 0.12437,0.09382 0.13156,0.08847 0.13994,0.08335 0.14954,0.07846 0.16035,0.0738 0.17237,0.06936 0.1856,0.06515 0.26852,0.08583 0.2841,0.08556 0.29736,0.08297 0.30829,0.07807 0.3169,0.07085 0.32318,0.06132 0.32714,0.04947 0.32876,0.03531 0.32808,0.01882 0.32505,2.7e-5 0.31971,-0.02109 0.31203,-0.04451 0.30204,-0.07026 0.28972,-0.09832 0.27507,-0.128698 0.25809,-0.16139 0.21197,-0.170402 0.19137,-0.188991 0.17385,-0.204878 0.15945,-0.218056 0.14815,-0.228531 0.13996,-0.2363 0.13486,-0.241364 0.13289,-0.243721 0.134,-0.243374 0.13823,-0.240322 0.14556,-0.234564 0.15599,-0.2261 0.16953,-0.214932 0.18617,-0.201057 0.20592,-0.184478 0.22878,-0.165193 0.0721,-0.04298 0.0777,-0.0406 0.0827,-0.03843 0.0868,-0.03644 0.0903,-0.03466 0.0929,-0.03306 0.0948,-0.03166 0.096,-0.03046 0.0964,-0.02945 0.096,-0.02863 0.0948,-0.02801 0.093,-0.02758 0.0904,-0.02735 0.0869,-0.02731 0.0828,-0.02746 0.0779,-0.02781 0.11201,-0.03846 0.11978,-0.0348 0.12647,-0.03086 0.13208,-0.02664 0.13661,-0.02215 0.14006,-0.01737 0.14245,-0.01232 0.14374,-0.007 0.14397,-0.0014 0.14311,0.0045 0.14118,0.01067 0.13817,0.01711 0.13408,0.02383 0.12892,0.03083 0.12267,0.03811 0.11535,0.04567 0.20282,0.101494 0.1834,0.114074 0.16586,0.12561 0.15023,0.136103 0.13648,0.14555 0.12462,0.153954 0.11466,0.161315 0.10658,0.167631 0.1004,0.172903 0.0961,0.177132 0.0937,0.180315 0.0932,0.182456 0.0946,0.183553 0.0979,0.183604 0.10304,0.182613 0.11011,0.180578 0.0739,0.110971 0.10062,0.143666 0.12372,0.171452 0.14319,0.194326 0.15901,0.212293 0.17119,0.225349 0.17972,0.233495 0.18462,0.236733 0.18587,0.235059 0.18349,0.228478 0.17745,0.216986 0.16778,0.200585 0.15447,0.179273 0.13752,0.153053 0.11692,0.121923 0.0927,0.08588 0.35259,0.265653 0.37237,0.228215 0.38991,0.193858 0.40521,0.162581 0.41828,0.134383 0.42909,0.109268 0.43767,0.08723 0.444,0.06827 0.44809,0.0524 0.44995,0.03961 0.44955,0.02989 0.44692,0.02325 0.44205,0.0197 0.43492,0.01923 0.42557,0.02183 0.41397,0.02752 0.24852,0.01848 0.2546,0.01661 0.25933,0.01311 0.26274,0.008 0.26482,0.0012 0.26556,-0.0071 0.26497,-0.01713 0.26305,-0.02875 0.25981,-0.04199 0.25522,-0.05686 0.24931,-0.07336 0.24207,-0.09148 0.23349,-0.111221 0.22359,-0.13259 0.21235,-0.155584 0.19978,-0.180201 0.32761,-0.363998 0.31465,-0.42032 0.30006,-0.469817 0.28385,-0.512487 0.26604,-0.548331 0.2466,-0.577349 0.22555,-0.599539 0.20289,-0.614905 0.1786,-0.623443 0.1527,-0.625156 0.12519,-0.620041 0.0961,-0.608101 0.0653,-0.589334 0.0329,-0.563741 -0.001,-0.531322 -0.0366,-0.492076 -0.0564,-0.365489 -0.0844,-0.38601 -0.10929,-0.403517 -0.13106,-0.418008 -0.14974,-0.429482 -0.16531,-0.437942 -0.17779,-0.443385 -0.18716,-0.445813 -0.19343,-0.445226 -0.1966,-0.441622 -0.19667,-0.435002 -0.19364,-0.425368 -0.18751,-0.412717 -0.17828,-0.397051 -0.16595,-0.378369 -0.15051,-0.356672 -0.33342,-0.862901 -0.26509,-0.783619 -0.21089,-0.713338 -0.1708,-0.652058 -0.14483,-0.599778 -0.13296,-0.5565 -0.13523,-0.522222 -0.1516,-0.496945 -0.1821,-0.480668 -0.2267,-0.473393 -0.28543,-0.475118 -0.35827,-0.485844 -0.44522,-0.505571 -0.54631,-0.534298 -0.66149,-0.572027 -0.7908,-0.618756 -0.35638,-0.200108 -0.40602,-0.113703 -0.44853,-0.03802 -0.4839,0.02695 -0.51213,0.0812 -0.53322,0.124736 -0.54718,0.15755 -0.554,0.179647 -0.55369,0.191027 -0.54623,0.191687 -0.53164,0.18163 -0.50991,0.160855 -0.48104,0.129362 -0.44504,0.08715 -0.4019,0.03422 -0.35162,-0.02942 -0.11578,-0.02813 -0.11684,-0.03765 -0.11759,-0.04616 -0.11805,-0.05365 -0.11822,-0.06013 -0.11811,-0.0656 -0.11769,-0.07006 -0.11698,-0.0735 -0.11599,-0.07593 -0.11469,-0.07735 -0.11311,-0.07776 -0.11124,-0.07715 -0.10906,-0.07553 -0.10661,-0.0729 -0.10385,-0.06925 -0.10081,-0.0646 -0.12611,-0.07619 -0.12778,-0.07256 -0.12925,-0.06941 -0.1305,-0.06673 -0.13151,-0.06454 -0.13231,-0.06282 -0.1329,-0.06158 -0.13325,-0.06083 -0.1334,-0.06055 -0.13331,-0.06074 -0.13301,-0.06142 -0.13249,-0.06258 -0.13174,-0.06422 -0.13079,-0.06633 -0.1296,-0.06893 -0.12819,-0.072 -0.22147,-0.129879 -0.21779,-0.130763 -0.21477,-0.131159 -0.21238,-0.131069 -0.21064,-0.130491 -0.20954,-0.129427 -0.20909,-0.127875 -0.20928,-0.125836 -0.21011,-0.123311 -0.21159,-0.120298 -0.21371,-0.116798 -0.21648,-0.112811 -0.21989,-0.108337 -0.22395,-0.103377 -0.22864,-0.09793 -0.23398,-0.09199 -0.23131,-0.05657 -0.27412,-0.01881 -0.30839,0.01226 -0.33411,0.03663 -0.35129,0.0543 -0.35994,0.06528 -0.36005,0.06956 -0.35161,0.06713 -0.32759,0.05802 -0.292,0.0422 -0.25391,0.01969 -0.21333,-0.0095 -0.17027,-0.04543 -0.1247,-0.08803 -0.0767,-0.13733 -0.0261,-0.193329 v 0 -10e-7 0 l 0,-1e-6 v 0 -10e-7 0 0 l 0,-10e-7 v 0 -1e-6 0 l 0,-10e-7 v 0 -10e-7 z"
       id="path978"
       sodipodi:nodetypes="ccccccccccccccccccccccccccccccccccccccccccccccccccccccccccccccccccccccccccccccccccccccccccccccccccccccccccccccccccccccccccccccccccccccccccccccccccccccccccccccccccccccccccccccccccccccccccccccccccccccccccccccccccccccccccccccccccccccccccccccccccccccccccccccccccccccccccccccccccccccccccccccccccccccccccccccccccccccccccccccccccccccccccccccccccccccccccccccccccccccccccccccccccccccccccccccccc" />
  </g>
</svg>
