<?xml version="1.0" encoding="UTF-8" standalone="no"?>
<!-- Created with Inkscape (http://www.inkscape.org/) -->

<svg
   width="81.704468mm"
   height="63.406433mm"
   viewBox="0 0 81.704468 63.406433"
   version="1.1"
   id="svg1600"
   inkscape:version="1.1.2 (0a00cf5339, 2022-02-04)"
   sodipodi:docname="shape2.svg"
   xmlns:inkscape="http://www.inkscape.org/namespaces/inkscape"
   xmlns:sodipodi="http://sodipodi.sourceforge.net/DTD/sodipodi-0.dtd"
   xmlns="http://www.w3.org/2000/svg"
   xmlns:svg="http://www.w3.org/2000/svg">
  <sodipodi:namedview
     id="namedview1602"
     pagecolor="#ffffff"
     bordercolor="#666666"
     borderopacity="1.0"
     inkscape:pageshadow="2"
     inkscape:pageopacity="0.0"
     inkscape:pagecheckerboard="0"
     inkscape:document-units="mm"
     showgrid="false"
     fit-margin-top="0"
     fit-margin-left="0"
     fit-margin-right="0"
     fit-margin-bottom="0"
     inkscape:zoom="1.4609989"
     inkscape:cx="148.87075"
     inkscape:cy="174.88035"
     inkscape:window-width="1850"
     inkscape:window-height="1009"
     inkscape:window-x="70"
     inkscape:window-y="34"
     inkscape:window-maximized="1"
     inkscape:current-layer="layer1" />
  <defs
     id="defs1597" />
  <g
     inkscape:label="Calque 1"
     inkscape:groupmode="layer"
     id="layer1"
     transform="translate(-40.049643,-17.465756)">
    <path
       style="fill:none;stroke:#000000;stroke-width:0.264583px;stroke-linecap:butt;stroke-linejoin:miter;stroke-opacity:1"
       d="m 50.680058,43.490549 1.309838,0.331502 1.274644,0.254144 1.243108,0.17878 1.215227,0.105411 1.191005,0.03404 1.170438,-0.03534 1.153528,-0.102725 1.140276,-0.168115 1.130681,-0.231508 1.124741,-0.292908 1.122459,-0.352312 1.123834,-0.409721 1.128865,-0.465136 1.137554,-0.518555 1.149899,-0.56998 1.165901,-0.61941 1.420137,-0.955008 1.216039,-1.165038 1.044039,-1.343174 0.90414,-1.489417 0.796342,-1.603764 0.720643,-1.686218 0.677044,-1.736778 0.665547,-1.755443 0.686147,-1.742213 0.73885,-1.697091 0.823652,-1.620073 0.940554,-1.511161 1.089557,-1.370356 1.270659,-1.197655 1.483861,-0.993061 1.729164,-0.756573 1.975312,-0.403126 1.544543,0.226341 1.159845,0.778963 0.821218,1.254739 0.528661,1.65367 0.282175,1.975755 0.08176,2.220996 -0.07258,2.389391 -0.180855,2.480941 -0.243057,2.495644 -0.259187,2.433503 -0.229247,2.294517 -0.153236,2.078685 -0.03115,1.786007 0.137,1.416484 0.351223,0.970117 0.258072,0.128031 0.552438,0.08984 0.806965,0.05616 1.021653,0.027 1.196504,0.0024 1.331515,-0.01775 1.426688,-0.03335 1.482022,-0.04442 1.497522,-0.05098 1.47317,-0.05302 1.40899,-0.05054 1.30498,-0.04353 1.16111,-0.03201 0.97742,-0.01597 0.75387,0.0046 0.49051,0.02967 1.13403,0.206719 1.19091,0.336904 1.22592,0.459025 1.23905,0.57308 1.23032,0.679073 1.19971,0.777 1.14722,0.866864 1.07286,0.948664 0.97663,1.022399 0.85853,1.088069 0.71855,1.145677 0.5567,1.19522 0.37297,1.236697 0.16738,1.270113 -0.0601,1.295462 -0.30944,1.312748 -0.17006,0.534267 -0.15897,0.546409 -0.15073,0.556408 -0.14535,0.564261 -0.14283,0.569969 -0.14316,0.573533 -0.14635,0.57495 -0.15241,0.574224 -0.1613,0.571351 -0.17307,0.566335 -0.18769,0.559173 -0.20517,0.549867 -0.22551,0.538414 -0.24869,0.524818 -0.27474,0.509075 -0.30365,0.491189 -1.34176,1.600026 -1.48265,1.024869 -1.60159,0.509956 -1.69858,0.05528 -1.77362,-0.339141 -1.82671,-0.673326 -1.85786,-0.947267 -1.86704,-1.160965 -1.85428,-1.31442 -1.81958,-1.407632 -1.762919,-1.440601 -1.68431,-1.413326 -1.583752,-1.325809 -1.461244,-1.178048 -1.316787,-0.970045 -1.15038,-0.701798 -0.218661,-0.0937 -0.226413,-0.06166 -0.232526,-0.03251 -0.237003,-0.0063 -0.239843,0.0171 -0.241046,0.03757 -0.24061,0.05513 -0.238539,0.0698 -0.23483,0.08157 -0.229484,0.09045 -0.2225,0.09643 -0.21388,0.09951 -0.203622,0.0997 -0.191726,0.09699 -0.178195,0.09138 -0.163026,0.08288 -1.489664,0.963019 -1.134063,1.175545 -0.834481,1.354047 -0.590913,1.498528 -0.403362,1.608985 -0.271828,1.685421 -0.196311,1.727833 -0.176809,1.736224 -0.213324,1.710591 -0.305856,1.650936 -0.454404,1.557259 -0.658969,1.429559 -0.91955,1.267836 -1.236147,1.072091 -1.608761,0.842324 -2.037392,0.578533 -0.186851,0.03991 -0.193758,0.04811 -0.199844,0.05422 -0.205109,0.05825 -0.209555,0.0602 -0.213181,0.06006 -0.215985,0.05783 -0.21797,0.05352 -0.219133,0.04712 -0.219478,0.03864 -0.219002,0.02807 -0.217704,0.01542 -0.215588,6.76e-4 -0.21265,-0.01615 -0.208892,-0.03506 -0.204315,-0.05606 -0.336592,-0.134696 -0.319149,-0.171 L 71.811481,80.118955 71.523923,79.887192 71.250512,79.630973 70.99015,79.354246 70.741738,79.060962 70.504176,78.75507 70.276367,78.44052 70.05721,78.121261 69.845609,77.801243 69.640462,77.484416 69.440673,77.174728 69.245142,76.87613 69.05277,76.592572 l -0.190312,-0.26457 -0.903892,-1.454643 -0.568097,-1.453917 -0.276573,-1.449743 -0.02932,-1.442122 0.173665,-1.431054 0.332381,-1.416539 0.446824,-1.398577 0.516999,-1.377168 0.542903,-1.352312 0.524538,-1.324008 0.461903,-1.292258 0.354997,-1.25706 0.203821,-1.218416 0.0084,-1.176323 -0.231339,-1.130785 -0.515325,-1.081798 -0.282014,-0.148446 -0.596766,-0.09868 -0.873237,-0.05638 -1.111428,-0.02154 -1.311339,0.0058 -1.472969,0.02577 -1.59632,0.03824 -1.68139,0.04324 -1.72818,0.04078 -1.736689,0.03086 -1.706919,0.01349 -1.638867,-0.01135 -1.532536,-0.04365 -1.387925,-0.08341 -1.205033,-0.130625 -0.983861,-0.185303 -0.521308,-0.194268 -0.646972,-0.345263 -0.745527,-0.477023 -0.816975,-0.589551 -0.861313,-0.682846 -0.878545,-0.756906 -0.868668,-0.811735 -0.831683,-0.847329 -0.76759,-0.86369 -0.676389,-0.860818 -0.55808,-0.838714 -0.412663,-0.797374 -0.240137,-0.736804 -0.0405,-0.656998 0.186237,-0.55796 0.440087,-0.439689 0.811171,-0.488899 0.738423,-0.369753 0.675697,-0.263139 0.622993,-0.169057 0.580311,-0.08751 0.54765,-0.01849 0.525011,0.038 0.512395,0.08196 0.509801,0.113382 0.517227,0.132276 0.534677,0.138636 0.562147,0.132467 0.59964,0.113765 0.647155,0.08253 0.704692,0.03877 0.77225,-0.01753 v -10e-7 -2e-6 -2e-6 l 0,-1e-6 v -10e-7 -2e-6 -2e-6 l 0,-10e-7 v -10e-7 -2e-6 -2e-6 -10e-7 -10e-7 -2e-6 l 0,-10e-7 z"
       id="path1750"
       sodipodi:nodetypes="ccccccccccccccccccccccccccccccccccccccccccccccccccccccccccccccccccccccccccccccccccccccccccccccccccccccccccccccccccccccccccccccccccccccccccccccccccccccccccccccccccccccccccccccccccccccccccccccccccccccccccccccccccccccccccccccccccccccccccccccccccccccccccccccccc" />
  </g>
</svg>
