<?xml version="1.0" encoding="UTF-8" standalone="no"?>
<!-- Created with Inkscape (http://www.inkscape.org/) -->

<svg
   width="60.682358mm"
   height="29.76042mm"
   viewBox="0 0 60.682358 29.760419"
   version="1.1"
   id="svg592"
   sodipodi:docname="two_bumps.svg"
   inkscape:version="1.1.2 (0a00cf5339, 2022-02-04)"
   xmlns:inkscape="http://www.inkscape.org/namespaces/inkscape"
   xmlns:sodipodi="http://sodipodi.sourceforge.net/DTD/sodipodi-0.dtd"
   xmlns="http://www.w3.org/2000/svg"
   xmlns:svg="http://www.w3.org/2000/svg">
  <sodipodi:namedview
     id="namedview594"
     pagecolor="#ffffff"
     bordercolor="#666666"
     borderopacity="1.0"
     inkscape:pageshadow="2"
     inkscape:pageopacity="0.0"
     inkscape:pagecheckerboard="0"
     inkscape:document-units="mm"
     showgrid="false"
     fit-margin-top="0"
     fit-margin-left="0"
     fit-margin-right="0"
     fit-margin-bottom="0"
     inkscape:zoom="2.9219978"
     inkscape:cx="21.21836"
     inkscape:cy="39.869983"
     inkscape:window-width="1850"
     inkscape:window-height="1009"
     inkscape:window-x="70"
     inkscape:window-y="34"
     inkscape:window-maximized="1"
     inkscape:current-layer="layer1" />
  <defs
     id="defs589" />
  <g
     inkscape:label="Calque 1"
     inkscape:groupmode="layer"
     id="layer1"
     transform="translate(-45.967121,-61.279235)">
    <path
       style="fill:none;stroke:#000000;stroke-width:0.264583px;stroke-linecap:butt;stroke-linejoin:miter;stroke-opacity:1"
       d="m 45.994403,61.57779 c 0.96644,0.203681 1.921747,0.214523 2.901939,0.214523 0.03087,0 0.222991,0.01866 0.234267,0 0.144105,-0.238424 2.802295,-0.240011 3.134992,-0.0757 0.487904,0.240967 0.944435,0.577249 1.282311,0.917022 0.934153,0.939399 0.366805,2.619803 0.787645,3.89464 0.367757,1.114033 0.157129,2.458478 0.395788,3.651772 0.145638,0.728195 0.167727,1.519599 0.317722,2.269575 0.09277,0.463868 -0.0698,0.988487 0.04527,1.44878 0.175998,0.703994 0.362195,1.633646 0.362195,2.377168 0,2.187047 0.56596,4.346669 0.819778,6.513295 0.07011,0.598446 -0.04303,1.265466 0.102337,1.846929 0.275706,1.102824 0.386198,2.298834 0.55727,3.426817 0.09439,0.622356 0.07319,1.771449 0.49489,2.162932 0.840466,0.780235 2.502673,0.09536 3.59154,0.363231 1.286162,0.31641 3.038929,0.02806 3.850255,-0.783265 0.606968,-0.606967 1.028741,-4.300741 1.26715,-5.263207 0.148799,-0.600707 -0.04265,-1.288402 0.04527,-1.90387 0.136161,-0.953126 0.374797,-1.880454 0.47398,-2.872285 0.191933,-1.919326 -0.03231,-3.858733 0.238069,-5.764131 0.258807,-1.823871 -0.110911,-4.140589 0.226372,-5.978375 0.10798,-0.588361 0.41667,-1.140273 0.565485,-1.740053 0.359328,-1.448223 -0.298968,-3.514798 0.542663,-4.544663 0.233621,-0.285871 1.375049,-0.117448 1.739356,-0.117448 0.544205,0 1.185107,0.01854 1.721435,-0.138856 0.564475,-0.165654 2.311295,-0.0042 2.861107,0.182783 0.638104,0.217036 1.65984,-0.09055 2.329924,-0.09055 0.680384,0 5.306808,-0.02099 5.594249,0.136286 0.399926,0.218831 1.359374,-0.25796 1.657186,0.08052 0.324914,0.369278 0.346123,0.800613 0.469104,1.292533 0.160824,0.643302 0.429582,1.203971 0.527513,1.889481 0.142711,0.998977 0.03568,2.057748 0.202252,3.057175 0.152369,0.914207 0.271206,1.808711 0.452745,2.72605 0.23727,1.198965 0.08689,2.459531 0.423807,3.637862 0.237101,0.829244 -0.08645,1.907194 0,2.771727 0.07839,0.783901 0.160573,1.693637 0.374536,2.448465 0.207931,0.733552 0.579908,1.458178 0.705252,2.21023 0.232249,1.393492 0.429763,2.701544 0.429763,4.112326 0,0.683585 0.23056,1.336027 0.363654,1.999935 0.235368,1.174093 0.309348,2.010796 1.028009,2.719705 0.113639,0.112098 0.414377,-5.3e-4 0.562359,0.03692 0.160898,0.04084 0.411265,0.09964 0.582758,0.04621 1.297725,-0.404342 5.235101,0.654259 6.023075,-0.132649 0.785448,-0.784384 1.21416,-3.82199 1.408354,-4.994251 0.03741,-0.225862 -0.07347,-0.505641 0,-0.719444 0.158617,-0.46161 0.09443,-0.878978 0.146965,-1.352583 0.03347,-0.301815 0.149773,-0.595563 0.192929,-0.89929 0.260524,-1.833522 -0.137232,-3.77517 -0.137232,-5.601744 0,-0.549796 0.142957,-1.045438 0.318159,-1.553638 0.308573,-0.895074 0.282506,-2.084847 0.282506,-3.052512 0,-1.63248 -0.06563,-3.082019 0.372917,-4.610604 0.08981,-0.313038 -0.01789,-0.705313 0.127339,-0.991873 0.08667,-0.171015 0.01262,-0.526847 0.04528,-0.716208 0.174625,-1.012438 0.06788,-3.912963 0.771752,-4.417231 0.671476,-0.481058 2.515586,-0.194563 3.332306,-0.02287 0.27336,0.05747 0.69785,0.0085 0.92692,-0.07814 0.15529,-0.05874 2.20822,-0.01994 2.58161,-0.01994"
       id="path241"
       sodipodi:nodetypes="csccsssccsssssssscssssssscssssssssssssssccssssssssssssssc" />
  </g>
</svg>
