<?xml version="1.0" encoding="UTF-8" standalone="no"?>
<!-- Created with Inkscape (http://www.inkscape.org/) -->

<svg
   width="112.96062mm"
   height="7.47264mm"
   viewBox="0 0 112.96062 7.47264"
   version="1.1"
   id="svg1993"
   inkscape:version="1.1.2 (0a00cf5339, 2022-02-04)"
   sodipodi:docname="waves.svg"
   xmlns:inkscape="http://www.inkscape.org/namespaces/inkscape"
   xmlns:sodipodi="http://sodipodi.sourceforge.net/DTD/sodipodi-0.dtd"
   xmlns="http://www.w3.org/2000/svg"
   xmlns:svg="http://www.w3.org/2000/svg">
  <sodipodi:namedview
     id="namedview1995"
     pagecolor="#ffffff"
     bordercolor="#666666"
     borderopacity="1.0"
     inkscape:pageshadow="2"
     inkscape:pageopacity="0.0"
     inkscape:pagecheckerboard="0"
     inkscape:document-units="mm"
     showgrid="false"
     fit-margin-top="0"
     fit-margin-left="0"
     fit-margin-right="0"
     fit-margin-bottom="0"
     inkscape:zoom="1.4609989"
     inkscape:cx="395.27751"
     inkscape:cy="98.220472"
     inkscape:window-width="1850"
     inkscape:window-height="1009"
     inkscape:window-x="70"
     inkscape:window-y="34"
     inkscape:window-maximized="1"
     inkscape:current-layer="layer1" />
  <defs
     id="defs1990" />
  <g
     inkscape:label="Calque 1"
     inkscape:groupmode="layer"
     id="layer1"
     transform="translate(-46.041002,-86.160558)">
    <path
       style="fill:none;stroke:#000000;stroke-width:0.264583px;stroke-linecap:butt;stroke-linejoin:miter;stroke-opacity:1"
       d="m 46.138118,93.543368 c 10.892292,-11.775729 14.150797,0.956844 18.877253,-0.62511 3.344839,-1.119524 7.606972,-5.697982 11.268437,-4.782617 2.553066,0.638265 6.460787,4.986624 8.962959,3.738984 8.090271,-4.033994 9.580584,-7.532841 16.189393,-0.818775 2.72622,2.769635 10.66284,-6.209151 13.56112,-4.422896 1.89223,1.166209 4.74572,3.192774 5.88755,4.262149 1.31708,1.233498 7.82012,-3.550113 9.38842,-4.066141 4.36316,-1.435632 4.02881,0.20033 6.29642,2.676583 0.55084,0.601523 2.12057,0.954731 2.61119,1.419567 1.95903,1.856078 8.48127,-3.220969 9.27506,-4.058314 2.03518,-2.146859 6.22536,3.969192 7.29674,4.361307 0.32161,0.739595 1.11522,0.764324 1.52737,1.162743 0.48212,0.466052 1.02051,0.86635 1.67733,1.099581"
       id="path2214"
       sodipodi:nodetypes="csssssssssscsc" />
  </g>
</svg>
